<?xml version="1.0" encoding="utf-8"?>
<!-- Generator: Adobe Illustrator 19.2.1, SVG Export Plug-In . SVG Version: 6.00 Build 0)  -->
<svg version="1.1" id="Layer_1" xmlns="http://www.w3.org/2000/svg" xmlns:xlink="http://www.w3.org/1999/xlink" x="0px" y="0px"
	 viewBox="0 0 3456 2592" style="enable-background:new 0 0 3456 2592;" xml:space="preserve">
<style type="text/css">
	.st0{fill:none;stroke:#000000;stroke-width:20;}
	.st1{fill:#D9D9D9;stroke:#000000;}
	.st2{fill:#FFFFFF;stroke:#000000;stroke-width:10;}
	.st3{font-family:'Myriad-Roman';}
	.st4{font-size:81.5908px;}
	.st5{font-family:'ArialMT';}
	.st6{font-size:10%;}
</style>
<g>
	<polygon points="1012.9,36 1398.4,36 1496.2,1907.5 1449.9,1907.5 1223.6,313.6 735.2,313.6 	"/>
	<polygon points="2155,36 1769.4,36 1671.8,1907.5 1718,1907.5 1944.1,313.6 2432.7,313.6 	"/>
	<polygon class="st0" points="1460.1,41.1 1706.9,41.1 1655.5,478.2 1511.6,478.2 	"/>
	<path class="st1" d="M1671.8,1907.5"/>
	<path class="st1" d="M1496.2,1907.5"/>
	<path d="M247.8,1673.7h-70.6v-18.1h172.6v18.1h-69.2v139.5h-32.9V1673.7z"/>
	<path d="M490,1651.6l19.6,110.8h0.9l42.7-77.4h8.8l42.7,77.4h1l20.1-110.8l33.3,2.4l-36.8,163.1h-11.3l-53.4-97.2l-53.5,97.2h-11.2
		L456.2,1654L490,1651.6z"/>
	<path d="M799.4,1795h35.8v-121.3h-35.8v-18.1h104.9v18.1H868V1795h36.3v18.2H799.4V1795z"/>
	<path d="M1060.7,1655.6h40.7l99.1,132.8l1-0.6l-2.9-40.8v-91.4h32.8v157.6h-40.7l-99.1-132.8l-0.9,0.7l2.9,41.1v91.1h-32.8V1655.6z
		"/>
	<path d="M1885.3,1795h35.8v-121.3h-35.8v-18.1h104.9v18.1h-36.3V1795h36.3v18.2h-104.9V1795z"/>
	<path d="M2174.6,1685.5h-0.9l-6.4,127.6h-34.8l10.2-157.6h43.1l46.1,68.4l46.1-68.4h43.1l10.3,157.6h-34.8l-6.4-127.6h-0.9
		l-57.4,83.2L2174.6,1685.5z"/>
	<path d="M2481,1770.2l-24,46.9l-32.3-7.3l80.4-154.2h42.1l80.4,154.2l-32.3,7.3l-23.6-46.9H2481z M2526.1,1679.1l-36.4,73h72.7
		L2526.1,1679.1z"/>
	<path d="M2906.6,1798.7c-21.1,10.2-52.5,17.2-78.5,17.2c-75,0-96.5-43-96.5-81.7c0-38.1,22.5-81.4,95.6-81.4
		c34.3,0,64.2,12.4,81.9,30.3l-27.9,11.1c-12.3-12.6-30.9-22.3-55.9-22.3c-50.5,0-59.4,39.1-59.4,63c0,24.4,8.9,61.9,60.4,61.9
		c16.6,0,33.3-2.7,47.6-8.1v-41.4h-61.3v-18.2h94.1V1798.7z"/>
	<rect x="3032.4" y="1660.7" width="176.2" height="21.1"/>
	<rect x="3032.4" y="1726.7" width="176.2" height="21.1"/>
	<rect x="3032.4" y="1792.8" width="176.2" height="21"/>
	<path class="st2" d="M3371.7,1640.9c0,23.8-19.3,43.1-43.1,43.1c-23.8,0-43.1-19.3-43.1-43.1c0-23.8,19.3-43.1,43.1-43.1
		C3352.4,1597.8,3371.7,1617.1,3371.7,1640.9z"/>
	<text transform="matrix(1 0 0 1 3306.1465 1668.625)" class="st3 st4">R</text>
	<text transform="matrix(1 0 0 1 674.4878 2447.6895)" class="st5 st6">D  SIGN</text>
	<rect x="1048.6" y="2094.6" width="256.5" height="46.8"/>
	<rect x="1048.6" y="2241.6" width="256.5" height="46.8"/>
	<rect x="1048.6" y="2388.5" width="256.5" height="46.9"/>
</g>
</svg>
